<?xml version="1.0" encoding="UTF-8"?>
<svg id="Layer_1" xmlns="http://www.w3.org/2000/svg" version="1.1" viewBox="0 0 888.59 506.93">
  <!-- Generator: Adobe Illustrator 29.0.1, SVG Export Plug-In . SVG Version: 2.1.0 Build 192)  -->
  <defs>
    <style>
      .st0 {
        fill: #12d0ee;
      }

      .st1 {
        fill: #077fb0;
      }

      .st2 {
        fill: #f1790c;
      }

      .st3 {
        fill: #f1e32c;
      }

      .st4 {
        fill: #bc4a07;
      }

      .st5 {
        fill: #1b2a3d;
      }

      .st6 {
        fill: #dbdbdb;
      }

      .st7 {
        fill: #ccc;
      }

      .st8 {
        fill: #efa31a;
      }
    </style>
  </defs>
  <path class="st5" d="M63.23,265.66c1.16-.18,6.29-.23,6.87.13.47.29,2.75,9.38,2.93,10.64.24,1.69-.78,2.62-.8,3.23-5.31.94-10.71,3.16-16,4-1.53.24-6.24,1.22-7.05.59-1.35-1.03-4.35-12.61-1.28-14.43.83-.49,13.73-3.91,15.34-4.16ZM61.23,269.66c-4,.64-7.93,1.72-11.98,2.02-.14,13.82,4.4,9.24,13.98,6.98,2.32-.55,4.54-1.29,7-1.01-.94-2.19-.54-5.41-1.17-7.32-1.08-3.27-5.62-1.03-7.83-.68Z"/>
  <path class="st5" d="M48.13,254.77c.35,2.45,2.46,7.66.12,9.42-.86.65-18.71,4.82-21.01,5.09-4.02.47-5.48-7.41-2.43-9.53,1.89-1.32,22.16-5.95,23.32-4.97ZM46.23,257.67c-2.59.49-19.25,3.31-19.94,4.06-.38.42.12,2.91-.06,3.93.67.7,18.17-2.85,19.04-3.45,1.42-.99.93-3.09.96-4.54Z"/>
  <path class="st5" d="M61.23,227.66c1.12.02,2,.69,3,1,3.73,11.31.48,10.84-10,12,.03-1.9-.92-3.08-1-4-.11-1.26-.86-2.68-1-4-.1-.97.14-2.05,0-3,1.1,0,2.09-.77,3-1,1.57-.39,4.51-1.03,6-1ZM62.23,230.66l-6.98,1.05.99,5.96c6.05-.43,6.71-.79,5.99-7Z"/>
  <path class="st5" d="M167.23,225.66c1.08-2.76,29.4-8.23,33.98-10.05.35-3.87-4.42-14.19-2.53-17,1.08-1.6,27.47-7.93,31.55-8.97-1.87-4.24-6.52-13.28-1.95-16.44,2.4-1.66,29.77-9.64,30.92-8.52.25.25.6,5.74,1.03,6.98l13.98-4.01-6.87-3.61c-.65-2.53-6.79-9.58-7.02-11.04-.21-1.34.6-1.62,1.52-2.22l77.35-36.65c21.56-1.5,40.86-19.65,60.81-26.19,17.83-5.85,40.95-6.84,59.49-11.12l47.47,33.68c13.73-1.04,27.43-2.21,41.22-1.88l4.04-17.95-31.58,2.94-2.41-2.94,34.99-8c-8.46.57-17.06,1.07-25.49,2-10.41,1.15-25.37,5.02-35.06,5.04-1.79,0-3.43-.37-3.45-2.53.47-1.97,21.46-6.9,25.18-7.83,15.71-3.94,31.66-7.14,47.63-9.87,2.99-8.28,9.72-14.24,15.19-20.8-49.01,4.69-97.39,16.23-144.58,29.97l-1.93-.98.54-2.47c45.65-19.65,93.08-35.71,141.78-46.22,12.55-2.71,25.23-4.7,37.82-7.18,20.01-3.94,38.74-10.18,59.86-8.12,39.1,3.82,79.45,36.17,91.55,73.45,22.32,68.7-24.78,142.16-96.56,149.53-11.39,1.17-20.62-1.47-31.03-1.02-30.55,1.32-61.34,7.09-92.95,7.1-5.19,0-10.69-2.01-15.96-1.02-4.77.9-13.76,10.53-18.28,11.71-3.66.95-13.6-1.09-14.17-.68-.41.3-1.46,6.2-4.57,8.93s-25.9,15.65-29.1,15.97c-8.92.9-20.65-8.4-25.83-15.07-1.7-2.19-6.16-11.4-6.71-11.8s-9.66,1.21-13.26-.07c-1.18-.42-.29-2.18-.81-2.78-2.5-2.89-49.42-.44-56.77-1.21-.26,2.78-1.18,8.47-3.07,10.43-1,1.04-21.28,12.12-23.25,12.74-5.4,1.7-14.58-.78-18.99-4.19-1.87-1.45-6.41-9.76-7.45-10.04-5.04-1.39-28.15,6.41-30.19,4.93-.31-.23-2.19-6.46-2.17-7.46.05-3.77,2.96-3,3.15-4.1.09-.51-1.77-8.08-2.12-8.33-1.41-1.02-29.7,6.94-33.95,7.98-2.82.68-14.58,2.57-16,4.02-.33.34,1.58,4.18.9,6.34-.6,1.88-2.81,1.5-2.9,1.65-7.12,1-14.05,3.43-21,5-1.95.44-4.89,1.22-6.51,1.51-.94.17-3.17-.87-3.49-.52-.44.48,1.12,5.38-2,6.01-1.08-.75-11.24,3.55-14.06,1.56-1.01-.71-5.68-18.21-2.94-20.56l40-9-1.02-6c-14.05,2.52-27.96,7.59-41.98,10-2.52.43-8.35,1.34-10.55,1.1-1.9-.2-1.38-2.11-2.02-2.14-1.78-.08-8.03,2.43-10.43,3.03-1.24.31-2.25.81-3,1-4.55,1.15-9.32,2.08-13.93,2.96-.48-.35-3.11-10.68-2.93-11.39.43-1.72,4.27-2.11,5.86-2.57,7.22-2.09,14.74-4.01,22-6,2.2-.6,14.19-2.31,14.9-3.11.48-.54-.03-2.83.1-3.89.08-.64-.17-1.58,0-2ZM708.14,38.57c-.28-10.74-5.22-13.06-14.13-16.19-21.24-7.45-41.84-7.01-63.73-2.66l-.06,15.96c14.24.37,27.81,4.78,41.49,8.07l36.42-5.17ZM609.23,25.67c-42.9,5.7-84.66,18.19-125.52,31.97l-22.48,9.01c21.41-3.89,42.4-9.73,63.81-13.67,19.03-3.5,38.26-6.02,57.45-8.55,7.78-7.85,17.9-12.36,26.74-18.75ZM715.23,41.66c-6.05.41-34.09,3.08-37.53,5.99-.5.43-1.12,1.82-1.11,2.51l6.64,37.49,27.9-15.59c1.52-2.38,5.33-24.9,5.1-28.4,4.78,3.91,9.11,8.75,12.97,13.53,4.76,5.89,9.83,15.73,14.49,20.51,4.22,4.33,12.48,7.33,14.55,13.96,3.89-1.62.63-6.27-.5-9.02-9.21-22.61-25.72-37.89-45.04-51.96-3.77-.09.84,3.49,1.6,5.42.82,2.1.58,3.69.92,5.57ZM668.04,47.87c-13.08-4.29-26.7-6.8-40.26-9.17-13.41,6.92-24.9,16.9-36.35,26.65-.43,12.59,1.41,25.32,3.72,37.68,10.18,3.88,20.73,6.76,31.09,10.13,3.16,1.03,5.99,4.05,10.41,3.28,1.13-.29,1.25-2.01,1.94-2.43,12.01-7.36,22.99-15.99,34.64-23.87,1.47-1.32,1.13-3.2,1.04-4.94-.63-11.9-4.67-25.4-6.21-37.33ZM550.23,123.66c.04,3.51-.09,11.53,2.43,14.07,1.77,1.78,15.54,5.98,17.42,4.78.77-.49,6.59-14.01,7.97-16.52,2.44-4.44,9.65-14.54,10.79-18.37.43-1.45-.61-1.81-.62-1.96-.52-7.86-2.21-15.68-2.99-23.51-.27-2.76.7-9.92-.45-11.55-1.78-2.54-17.16.83-19.85,2.27-4.15,2.22-9.83,18.7-11.21,23.79-2.41,8.88-3.6,17.73-3.5,27ZM560.23,72.67l-43.99,9.49,41.32-2.46,2.67-7.03ZM344.23,118.66c-1.23.02-2.72.81-4,1,.26-3.12,1.41-.92,1.99-2.99-25.93,10.45-50.7,24.02-75.99,35.99-.82.39-2.53-.96-1.91,1.39.26.98,3.77,7.06,4.42,7.6,3.02,2.51,8.95-.14,11.29,1.22.84.49,4.88,9.18,6.2,10.79v1c-.9-.05-2.18-.13-3,0,.03-.8-.86-1.52-1-2-.4-1.34-.14-4.43-2.48-4.68-1.95-.21-14.48,5.57-17.52,6.68-.74.27-3.68,1.28-3.99,1-.73-.64.14-7.92-3.44-7.99-1.25-.03-22.69,6.48-23.9,7.16-3.72,2.1.78,7.47.33,10.83,1.22,1.09,16.39-6.16,20.39-5.08,1.24.33.86,4.42,1.68,5.01,1.1.79,7.61-1.79,10.3-1,.23.07,2.46,3.75,2.62,4.07.29.58-.27,2.29,0,3-5.53.89-11.67,2.35-17,4-1.69.52-3.33,1.4-5,2-.78-2.35-2.38-7.87-4.49-8.04-10.91,4.28-26.82,5.54-37.1,9.95-.79.34-2.01.52-2.18,1.54.71,3.19,2.05,6.39,2.77,9.55.42,1.84.86,4.13,1,6,.05.66-.03,1.34,0,2-1.27.19-2.69-.02-4.2.26-4.9.89-24.72,5.22-28.09,6.94-4.13,2.11,1.31,5.93-2.38,7.62-4.89,2.49-39.85,8.66-41.23,10.27-.62.72.19,5.37-.1,6.91,2.17,2.14,23.86-6.44,27.59-5.75,1.07.2,1.08,2.29,1.58,2.6,2.6,1.63,52.29-13.09,59.85-13.33,3.43-2.58-2.91-14.06-3.02-17.52,0-.16.91-2.87,1-3,3.62,1.32,10.92-3.67,13.37-2.93,3.62,1.09.8,12.6,8.63,7.93.12.4.71,1.15,1,2-2.49,1.39-18.34,4.28-19,5-.78.85,3.46,7.9-1.04,10.45-1.27.72-5.71,1.26-5.94,1.58-.67.93,2.76,7.67.04,9.53-.89.61-17.87,3.69-21.06,4.44-6.27,1.47-12.6,3.07-18.98,4.02-.56.58,2.46,15.36,3.07,15.88.85.73,8.76-.58,9.95-1.4,1.87-1.3-.94-3.73.93-5.01.69-.47,11.09-3.05,13.04-3.5,2.87-.66,20.27-3.04,20.98-4.04s-2.46-6.7-.41-8.08l54.34-11.82c.85,1.65,2.71,11.43,3.17,11.83,1.87,1.63,15.6-3.28,18.9-2.91-.98-2.14-3.69-.02-6.06-2.43-2.2-2.24-1.84-6.93-3.94-9.55,3.86-.96,2.94,1.88,4,4.99.38,1.11-.48,3.21,1.6,3.91,6.98,2.35,2.63-8.09,2.42-11.43-.52-8.13,1.96-12.85,2.98-20.49,4.77.78,10.79-2.15,15.33-1.04,1.61.39,13.24,27.81,16.33,28.87,7.45,2.57,14.31-4.11,15.74-3.78,2.3.54,2.78,7.91,6.09,7.94l62.02.98c3.89,3.23,4.6,5.07,10.48,4.01l-7-37.99c9.8-.14,20.1.13,29.51,1.98l17.65,32.85c.73.45,9.69.36,11.28.11,2.97-.47,3.85-2.74,6.55-2.94.07,1.57,1.44,7.75,2.67,8.04,5.7,1.37,15.44-1.56,21.73.68l26.61-16.74-1.98-1.97c2.49-1.96,11.49-1.99,12.74-3.27.59-.6.44-2.41,2.28-4.21,5.41-5.26,22.62-14.89,29.97-19.53.74-.47,3.24-.96,3-1.5-1.31-2.09-4.69-3.92-6-5.5-1.16-1.41-5.09-6.55-6-8s-3.11-5.37-4-7c-.49-.91-.43-6.63-3.41-5.94-.64.15-9.09,6.8-10.59,7.94-9.28.81-21.26.02-30,2-.27-11.75-3.68-18.79-14.91-22.58-.68-.23-.97-1.38-1.09-1.42l2-3c2.52-.02,2.84-1.48,4-2,13.98-6.23,26.2-16.23,39.79-23.2,1.36-2.36-.84-5.54-.79-6.8.07-1.81,1.01-4.08,1-7,0-1.66.07-3.34,0-5-.08-1.99.07-4.01,0-6.01-13.83.15-27.68,1.52-41.26,2.77l-45.79-32.22c-19.97-.9-39.94,6.71-59.78,9.15l-57.18,28.32ZM728.23,113.66c-1.33,3.86,1,7.47,1,10.5v16c0,3.64.79,10.09,1,14.5,0,.15-.19.06,0,1,.13.67-.2,1.66.19,2.3,1.6,2.61,18.58,12.51,21.81,11.7-1.36,3.5-4.93,9.47-7,13-2.23,3.79-6.14,8.05-7.97,12.3l-2.03,1.69c1.67.08,3.92-2.58,4.94-3.79,2.42-2.84,4.02-6.14,6.05-9.2,3.35-5.05,8.84-10.91,8.99-17-1.76-.07-.92,2.47-2.99,3,3.07-7.92,9.17-16.54,11-25,1.85-8.59,1.65-25.41.99-34.49-.17-2.42-.82-8.62-1.43-10.57-1.5-4.81-12.69-12.31-17.55-13.94-2.11,9.64-14.2,19.81-17.01,28ZM643.23,122.66c-.36.4-1.11.64-1.02,1.48,1.88,15.46,1.7,31.36,4.64,46.62l39.82,15.91c2.45-.23,31.49-21.36,34.62-24.5.77-.77,1.46-1.53,1.94-2.52,1.74-3.59,1.25-14.83,1.04-19.54-.35-7.73-1.68-16.38-2.94-24.06-1.24-2.89-12.8-7.83-16.43-9.57-4.1-1.97-21.82-10.41-24.92-9.64l-36.76,25.82ZM575.23,156.66c-1.2-1.51-2.47-4.68-4.02-5.48-4.19-2.17-13.25-2.1-17.49-6.51-3.17,5.15.57,13.09,2.49,18.51,4.59,12.94,12.68,27.33,22.02,37.48,6.01,6.53,13.12,9.92,22,11,.01-1.48.12-2.99,0-4.48-.36-4.14-1.63-19.66-2.74-22.27-1.55-3.63-18.33-23.33-22.25-28.25ZM677.23,222.66c.32-.15,1.28.25,1.76-.21,3.07-9.52,2.58-19.9,4.21-29.74-14.35-4.33-27.93-10.66-41.47-16.98-11.98,4.85-23.8,9.83-36.35,13.07.94,7.27-.29,23,4.85,27.86,2.44,2.3,8.09,4.65,11.33,6.17,4.2,1.97,19.53,8.75,23.2,8.87,4.67.16,27.54-6.77,32.47-9.05ZM250.12,183.77c-1.29-.91-8.09.73-8.88,2.39,3.47,1.2,2.97,5.5,4.01,8.5,2.34-1.66,16.35-3.42,16.93-4.06.16-.17.19-3.79.05-3.93-.88-.94-9.13,3.45-10.91,1.9-.4-.34-.47-4.28-1.2-4.8ZM228.23,213.66c-5.18.14-14.41,2.19-10.52,9.05.61,1.08,11.16-1.61,11.51-2.09.6-.82-1.49-5.31-.99-6.96ZM606.22,224.68c-5.22-.81-12.73-8.71-16.73-9.77-2.68-.71-19.75-.74-22.72-.2-1.86.34-18.3,10.94-19.53,12.47-1.75,2.16-.73,5.2-1.01,5.5-.41.42-9.91-.7-11,2.98,19.51-.48,38.83-4.16,58.03-7.45l12.96-3.52ZM712.23,216.67l-63.99,17.99c17.06.54,34.38-3.13,50.25-9.24,2.9-1.12,11.16-4.12,13.13-5.67.94-.74.83-2.84.62-3.07ZM324.12,255.55c.38-.54-.82-11.92-1.13-13.15-.92-3.64-8.38-14.39-12.02-15.98-13.1-5.71-10.3,16.33-5.58,23.58,1.49,2.29,7,7.04,9.57,7.51,1.33.24,8.7-1.31,9.16-1.95ZM437.94,225.79c-.45.12-7.01,5.45-7.21,5.86-4.77,9.72,6.98,26.88,15.95,31.11,2.84,1.34,11.85-2.38,12.41-4.79.27-1.16-1.69-13.53-2.35-15.32-1.74-4.74-13.64-18.23-18.8-16.86ZM546.23,237.66c-3.99.35-8.15.09-12.01,1.5,0,.82,10.48.57,12.01.5,16.38-.74,33.06-.82,49.49-2.01,11.48-.83,23.22-2.41,34.52-4.49-4.86-.78-10.12-4.38-14.74-5.26-7.64-1.46-37.61,6.16-47.93,7.6-7.11.99-14.2,1.54-21.33,2.17ZM301.23,252.65c.3-.46.07-2.33-.44-3.04-2.38-3.27-21.21,4.88-25.99,3.03-1.2.13-.94,4.32,1.08,4.94,1.24.38,24.65-3.85,25.35-4.93Z"/>
  <path class="st5" d="M468.23,485.66c-.09-.06.19-1.3-.73-1.99-5.94-4.49-12.08-8.43-15.06-15.72l-1.26-42.63c10.67-4.2,21.56-8.58,32.52-11.74l31.57,11.74c-1.61,12.34,2.11,29.95-.27,41.61-.5,2.47-4.44,7.81-6.25,9.75-3.22,3.46-8.69,5.48-10.52,9.98-.39-.11-1.53-.08-2,0-1.37.23-5.96,2.19-5,4-3.7.13-5.62,2.36-9,3-3.64-2.13-6.98-4.72-10.47-7.07-1.28-.86-3.29-.76-3.53-.93ZM480.98,418.88c-6.61,1.24-17.23,7.74-24.27,9.76-1.52,2.52-.36,33.71.73,38.31,1.2,5.09,21.32,20.62,26.29,20.63,3.2,0,17.32-10.16,20.05-12.88.89-.88,5.65-6.44,5.93-7.07,1.65-3.6.3-22.81.48-28.52.11-3.49,2.12-7.03.58-10.5-7.52-1.44-23.03-11.01-29.79-9.74Z"/>
  <path class="st5" d="M110.23,247.66c.16,1.66.41,4.33-.98,5.52-.44.37-9.54,3.13-11.02,3.48-1.67.4-10.34,2.12-11.05,1.59-.96-2.7-4.83-14.69-2.98-16.08,1.21-.91,21.27-5.81,22.4-5.44,1.42.47,3.46,9.14,3.63,10.93ZM107.19,251.63c.65-.68-.63-11.31-2.58-11.89-2.56-.77-14.57,4.45-18.39,3.94,1.08,2.26,1.64,11.41,3.58,11.9,2.33-1.5,16.77-3.3,17.39-3.95Z"/>
  <path class="st5" d="M97.23,225.66c.22.98.36,3.48-.59,4.11-1.43.96-13.98,3.62-15.29,2.76-.51-.33-2.45-7.66-1.69-8.88.49-.79,9.4-3.84,10.57-3.99,4.04-.53,6.17,2.33,7,6ZM93.17,222.72c-.41-.37-10.55,1.56-10.91,1.98-.46.52.74,5.8.99,5.97.57.4,9.1-3.12,11-3.01-.34-.95-.88-4.77-1.07-4.93Z"/>
  <path class="st5" d="M143.23,254.66c2.51-.52,2.13,1.02,2.73,2.71,2.41,6.83,2.13,7.54-4.73,9.29-1.01.26-3.54-.32-4,0-1.09-2.1-3.06-8-1.86-9.86.69-1.08,4.71-.8,5.86-1.14.39-.11,1.85-.82,2-1ZM144.23,257.66c-5.08.54-6.95.28-5.99,6.01l7.01-1.01-1.01-5Z"/>
  <path class="st1" d="M61.23,269.66l2,9c-9.58,2.27-14.12,6.84-13.98-6.98,4.05-.3,7.98-1.39,11.98-2.02Z"/>
  <path class="st0" d="M61.23,269.66c2.21-.35,6.75-2.6,7.83.68.63,1.91.23,5.13,1.17,7.32-2.46-.28-4.67.46-7,1.01l-2-9Z"/>
  <path class="st0" d="M46.23,257.67c-.03,1.44.46,3.54-.96,4.54-.87.61-18.37,4.15-19.04,3.45.18-1.02-.32-3.51.06-3.93.68-.75,17.35-3.57,19.94-4.06Z"/>
  <path class="st8" d="M62.23,230.66c.72,6.21.06,6.57-5.99,7l-.99-5.96,6.98-1.05Z"/>
  <path class="st5" d="M208.32,330.99c4.05-.6,8.43-1.85,12.84-2.37,8.56-.82,17.16-2.53,25.75-2.73,6.4-.04,5.72,5.76,6.91,9.82,1.43,3.54,6.47-3.07,8.12-4.26,12.36-11.47,36.37-14.74,51.47-7.43,6.23,3.12,10.78.52,16.98-2.78,4.13-2.03,8.55-3.32,13.1-3.94,11.29-1.61,23.03-.54,34.29-.9,68.23-2.89,137.16-5.09,205.37-1.45,5.61-.04,11.29-.5,16.98.15,26.61,2.08,53.32,2.48,79.9,4.49,10.62-.02,10.11,8.68,15.69,8.4,3.13-.57,8.07-3.93,12.04-4.51,6.57-1.5,13.64-1.2,20.35-.83,31.36,2.07,63.91,7.35,95.36,11.76,6.49.91,15.45,2.21,21.87,3.12,4.23.49,8.73,1.7,9.81,6.44,2.85,9.06,2.88,18.95,2.03,28.44-.2,4.4-.22,9.53.44,14.34.65,4.99,2.52,9.52,4.08,14.23,2.18,6.81,2.92,14.82,3.68,22.21.39,5.67-2.28,11.41-6.69,14.88-2.22,1.61-4.36,1.48-8.35.96-9.97-1.2-29.83-3.6-41.08-4.96-5.2-.36-9-1.83-13.94-2.03-5.99-.05-13.4,1.07-19.73-.48-8.64-.98-16.05-8.4-25.04-6.66-16.26,3.58-33.62.83-50.14-.64-6.1-.64-12.34-.95-18.39-1.86-4.35-.75-7.58-2.56-11.7-2.05-1.53.21-2.53,1.28-3.99,1.4-33.35-1.08-85.74-3.41-117.51-4.59-1.28-.05-2.51-.1-3.74-.15-1.96-.11-3.38.09-4.48-1.26-1.4-1.92-1.88-4.34-3.92-5.85-3.11-2.72-8.94-2.36-11.67.18-1.45,1.18-2.1,2.94-3.55,4.13-3.91,2.68-9.8,1.28-14.47,1.62-4.94.03-10.22.02-13.93-1.03-3.63-.9-7.29-2.06-11.08-1.97-5.97.16-11.67,3.03-17.54,3.82-20.54,2.46-43.03.57-63.98,1.01-15.54.06-30.31,2.35-45.98,3.05-9.23.23-17.3.72-25.72-2.17-11.27-5.09-12.33-3.04-23.06,2.47-8.29,3.72-17.88,5.08-26.82,4.36-3.64-.34-7.23-.93-10.88-.57-5.29.49-10.42,2.3-15.75,2.91-14.77,1.81-30.22,2.37-44.79,3.65-4.46.41-8.69,1.25-13.05,2.06-10.86,1.76-22.25,3.03-33.2,4.57-8.68,1.36-15.96-3.76-16.87-12.94-.55-5.89,1.06-12.08,1.67-17.87.89-8.46,1.84-16.01,2.81-24.97,1.26-11.81,2.53-24.19,3.8-35.92.61-7.11,4.27-10.1,11.21-10.75,10.79-1.29,21.46-3.32,32.33-3.79,3.99-.05,8.11-.05,11.99-.71l.17-.03ZM473.23,323.66l-44,1v78c5.17,1.27,9.82,0,14.46-.05,8.31-.08,19.23,1.02,27.09.1,1.01-.12,3.45-.46,3.45-1.55v-17.5h-25v-12h20.5c.11,0,1.5-1.39,1.5-1.5v-16.5h-22v-12h24v-18ZM526.23,323.66h-50v18h15v60h20v-60h15v-18ZM551.23,360.66c.19,14.04-.13,28,.99,42.01l42.01.99v-19h-22.5c-.7,0-1.35-1.67-1.5-2.5-1-5.48.19-15.29,0-21.5-.37-12-1.32-23.98-.99-36.01-3.52,1.24-17.14-2.11-18.57-.05-1.78,2.58.5,9.33.6,12.52.24,7.82-.14,15.72-.04,23.54ZM425.23,324.66h-19.5l-13.51,30.99c-1.74.24-.94-2.27-.99-3.48-.31-8.53.13-17.09.58-25.57-1.69-2.3-14.93,1.29-18.53.11l-2.05,77.95h15.5c.54,0,2.22-1.55,3.5-1v-32l14.5,31h21.5l-17.93-39.5c1.21-4.87,18.44-37.03,16.93-38.5ZM597.23,361.66c.19,5.25.87,10.52,1.04,15.46.14,3.89-.93,24.83.9,26.1l43.07,2.44-1-19.01-25.01-.99v-12.01h21.01c-.21-3.96.29-8.05,0-12-.13-1.71.57-4.15-1.63-4.87l-20.37-1.13v-12c1.41-.59,3,1,3.51,1h19.5v-17l-43-1.99c1.41,11.78,1.56,24.03,2,35.99ZM367.23,345.66v-17.5c0-.11-1.39-1.5-1.5-1.5h-20c-.49,0-6.31,1.37-7.32,1.68-6.15,1.89-11.15,6.44-13.67,12.33-4.12,9.62-5.25,44.28-1.98,53.96,5.93,17.55,27.98,12.38,42.04,9.1l1.43-18.07c-6.08-.72-18.38,4.37-23.42.92-4.77-3.26-1.79-14.77-1.59-19.43.19-4.33-1.59-21.49,5.51-21.49h20.5ZM651.23,366.66c-2.74,12.96-5.54,25.97-8,39,4.27-1.42,14.26,1.97,17.37.89,2.67-.93,1.93-9.1,2.68-9.84.64-.62,16.79.44,17.81,1.08,1.32.82.84,9.74,3.78,10.73,4.05,1.36,12.47-1.03,17.36,1.13-2.65-12.6-7.4-24.68-10.99-36.99-.94-3.23-1.44-7.43-2.5-11-3.19-10.72-6.63-21.45-10.11-32.07l-19.25-.8c-2.96,12.55-5.47,25.25-8.14,37.86ZM311.89,335c-9.08-9.04-37.93-5.03-44.82,7-5.35,9.33-7.48,37.05-6.87,48.2,1.1,20.33,10.33,21.94,28.57,20.5,27.59-2.18,26.38-21.62,27.47-43.53.47-9.49,3.43-24.43-4.35-32.17ZM699.23,373.66c.73,10.18-.02,20.07,6.59,28.91,8.88,11.89,31.24,11.61,44.28,7.95,1.15-1.82-1.49-28.32-1.87-32.86-.25-2.96.18-6.04,0-9.01l-24.01-2c-.91,3.26.71,6.6,1,9,.18,1.48-.31,6.68,0,6.99,2.01,1.96,9.69-3.74,7,11.01-16,.97-13.95-6.96-15-19-.45-5.18-2.75-19.22,1.03-22.47,4.57-3.92,19.01,1.31,24.96,1.46l-1.05-17.95c-15.18-2.16-41.39-10.29-43.95,12.45-.94,8.38.42,17.36,1,25.5ZM238.22,336.67l-19,1.99-6,78.01,40.5-3c1.16-.06,1.99-.45,2.36-1.64.44-1.4,1.8-17.72,1.14-18.37l-23,2.01,3.99-59ZM753.23,379.66c2.31,20.56,4.81,36.4,29.46,38.03,26.39,1.75,22.12-16.72,20.54-36.03-1.09-13.31-3.61-26.57-4.05-39.96l-17.95-2.05c1,13.66,2.89,27.33,4,41,.56,6.86,4.69,19.34-5.48,19.05-9.33-.27-6.71-12.86-8.52-19.05l-3.14-41.36c-.2-.83-.7-1.25-1.5-1.5-1.45-.45-15.79-1.72-16.37-1.14,1.03,14.25,1.41,28.82,3,43ZM202.24,376.68c.36-.43,3.58-1.53,5.42-4.09,4.21-5.85,6.31-22.58,1.11-27.97-7.39-7.65-35.09,1.43-45.4,1.18l-8.15,77.86c12.95-2.42,38.12-.83,47.65-10.36,6.31-6.31,10.53-27.34,3.33-33.13-1.13-.91-5.61-1.54-3.96-3.5ZM809.23,381.66c1.38,12.29,2.08,24.73,3.46,37.04,1.59,2.4,36.05,5.23,41.54,5.97l-1.43-17.08c-1.69-2.42-19.56-2-22.91-3.88-1.57-.88-1.81-9.92-1.67-12.05l20,2c-.48-3.44-.48-7.68-1-11-.2-1.25-.61-5.3-1.19-5.82-1.82-1.63-19.69-1.69-20.67-3.32-.71-1.18.24-8.02-1.15-10.35.06-1.22,20.79,2.68,23.01,2.49-.23-2.92-.74-16.73-2.22-17.79-2.97-.43-40.91-6.75-40.79-4.7,1.9,12.75,3.58,25.69,5.02,38.49Z"/>
  <path class="st5" d="M156.23,214.66c-.58.15-1.43-.15-2,0-3.35.89-6.67,2.16-10,3-2.47.62-10.2,3.35-11.9,1.9-.37-.31-2.19-8.69-2.13-9.41.3-3.65,5.68-2.5,6.84-3.75.46-.5-.24-2.21.83-2.78.45-.24,5.16-1.61,6.36-1.96,5.26-1.51,11.52-2.17,17-4,1.39-.46,5.08-1.21,5.57-1.93,1.6-2.35-1.85-4.16,3.43-6.07,1.9-.69,14.19-4.07,15.01-3.57,1.78,2.99,5.65,18.44,4.54,20.57-.84,1.63-11.06,4.54-13.33,4.77-9.78.99-10.18.62-20.22,3.23ZM184.19,189.7c-1.96.16-13.41,2.52-13.86,3.07-.64.8.73,4.04-1.08,5.43-2.24,1.73-21.12,5.38-25.84,7.15-2.35.88-3.53,2.37-5.62,3.39-1.29.63-4.41.76-4.57.93-.52.57,1.41,5.46,1.03,6.96,1.42.22,2.82.03,4.22-.21,8.13-1.42,26.05-9.52,32.43-9.55,1.41,0,2.33,1.61,3.77,1.71,3.04.21,8.94-3.21,12.55-2.92l-3.04-15.96Z"/>
  <path class="st1" d="M344.23,118.66c.15,0,.73.88,1.48.84,7.06-.41,42.27-6.31,45.53-4.35l24.49,49.5c2.65,2.49,14.75,2.5,18.87,3.13,4.09.63,8.56,2.29,12.21,2.79,3.97.55,25.43,1.12,27.24,3.26l7.21,30.79c5.38-1.64,4.51,3.15,8.97,3.03.99,3.34,4.97,9.57,1,11-14.39,6.93-11.88,2.07-18.03-8.26-.4-.68-1.58-.82-2.25-2.01-3.25-5.75-5.74-12.17-8.63-18.11-.67-1.27-2.19-.42-3.09-.62-8.52-1.93-35.06-3.29-43.45-1.95-.62.1-10.85,4.8-11.33,5.2-.56.46-.09,1.36-.22,1.75-.17.52-.71.4-.6,1.95.52,7.16,3.61,15.78,4.6,23.05-1.75,1.51-38.96-1.83-45.52-1.02-4.77.59-12.91,5.86-18.47,2.52-3.1-1.86-13.18-25.21-15.93-29.87-.71-1.26-2.26-.4-3.07-.63-5.6-1.53-5.77-.01-10.46.04-7.73.09-22.23-1.51-28.54,1.96-.17-2.74-3.42-6.27-4-8-.26-.79-2.02-7.99-1.92-8.41.3-1.37,1.81-1.41,2.92-1.59.82-.13,2.1-.05,3,0,10.48.64,27.39-1.22,38.2-3.3,3.45-.66,10.19-1.25,10.8-5.7h-15.5c-.71,0-2.86,1.76-4.5,1-.05-.66.03-1.33,0-2l18.05-2.45c1.27-.87,2.65-11.2,2.95-13.55.16-1.28-.1-2.69,0-4,.05-.66-.03-1.34,0-2,.02-.33-.02-.67,0-1,2.7-2.38,1.51-6.23,2-9,.87-4.9,1.55-7.68,2-13,1.28-.19,2.77-.98,4-1ZM406.23,163.66l-17.98-39.5c-12.22-.31-24.7,2.49-36.96,3.56-.44,8.92,1.23,17.54.99,26.5-.07,2.71-2.16,8.59-.1,10.01,4.46,3.09,45.73-2.53,54.05-.57Z"/>
  <path class="st4" d="M459.23,189.66c.9.2,2.42-.65,3.09.62,2.89,5.94,5.38,12.36,8.63,18.11.67,1.19,1.85,1.33,2.25,2.01,6.15,10.33,3.63,15.19,18.03,8.26,8.79-4.23,16.86-11.71,24.94-15.56,4.09-1.95,7.7-.92,11.34-2.66,2.15-1.03,4.77-4.05,7.4-5.6s6.18-1.63,8.32-4.18h23c.91,1.45,4.84,6.59,6,8-10.42,2.75-21.29,3.11-32,3-7.6-.08-14.02,1.82-21.71,4.79s-16.78,12.81-25.05,15.95c-2.42.92-10.88,1.84-11.24,2.28-.23.28.13,2.16,0,2.98h16.5c5.85,0,33.55-23.71,41.5-25,2.5-.41,5.84.22,8.49.01l26.51,2.99c-7.35,4.64-24.56,14.27-29.97,19.53-1.85,1.8-1.7,3.61-2.28,4.21-1.25,1.28-10.25,1.31-12.74,3.27l1.98,1.97-26.61,16.74c-6.29-2.24-16.02.69-21.73-.68-1.22-.29-2.6-6.47-2.67-8.04-2.7.2-3.58,2.47-6.55,2.94-1.59.25-10.56.34-11.28-.11l-17.65-32.85c-9.41-1.86-19.71-2.12-29.51-1.98l7,37.99c-5.89,1.07-6.6-.78-10.48-4.01l-62.02-.98c-3.32-.03-3.8-7.4-6.09-7.94-1.43-.34-8.3,6.34-15.74,3.78-3.08-1.06-14.72-28.48-16.33-28.87-4.54-1.11-10.57,1.82-15.33,1.04-1.02,7.64-3.5,12.36-2.98,20.49.21,3.33,4.56,13.77-2.42,11.43-2.08-.7-1.22-2.81-1.6-3.91,2.82.04,3.24.82,2.99-2.46-.31-4.06-2.99-21.79-4.24-24.79-1.18-2.84-4.06-3.13-6.75-3.75-.65-3.74-2.94-7.96-3-12,.66-.04,1.34.03,2,0,10.22-.53,23.93,1.42,33.44-.06,3.36-.52,7.97-3.69,10.56-5.94.82.22,2.36-.63,3.07.63,2.75,4.65,12.83,28,15.93,29.87,5.56,3.34,13.69-1.92,18.47-2.52,6.56-.81,43.77,2.53,45.52,1.02-.99-7.26-4.08-15.89-4.6-23.05-.11-1.55.43-1.43.6-1.95l43.52,2.02c2.01.1,3.47-1.09,5.16-1.84,1.39-.61,6.65-3.08,6.32-5.18ZM479.73,225.66v1c.65-.33.65-.67,0-1Z"/>
  <path class="st3" d="M668.04,47.87c1.54,11.94,5.58,25.43,6.21,37.33.09,1.75.43,3.62-1.04,4.94-11.64,7.88-22.63,16.51-34.64,23.87-.69.42-.81,2.14-1.94,2.43-4.43.78-7.25-2.25-10.41-3.28-10.36-3.37-20.91-6.26-31.09-10.13-2.31-12.37-4.15-25.1-3.72-37.68,11.45-9.75,22.95-19.73,36.35-26.65,13.56,2.37,27.19,4.88,40.26,9.17Z"/>
  <path class="st0" d="M344.23,118.66l57.18-28.32c19.83-2.44,39.81-10.05,59.78-9.15l45.79,32.22c13.57-1.25,27.43-2.62,41.26-2.77.06,1.99-.09,4.01,0,6.01-15.6,1.37-31.35.39-47,1,.51-2.27-1.29-2.1-2.47-2.98-3.17-2.34-6.22-4.89-9.53-7.02-8.08-7.85-18.34-13.19-27.49-19.64l-58.09,29.62,19.57,41.58c3.35,2.14,16.9-9.91,22.01-10.56,18.08,3.96,41.63,2.08,59,7-4.7,1.93-5.79,5.05,0,5l-2,3c-1.39-.46-18.23,9.62-19.71,11.31-.49.55-.14,1.44-.29,1.69-.45.78-1.51,1.18-1.82,2.67-.7,3.31,3.68,19.77,5.86,21.79.55.51,1.74.33,1.97.54.45.42,1.92,1.75,2,2,.31,1.03-.31,2.97,0,4-4.46.11-3.59-4.67-8.97-3.03l-7.21-30.79c-1.82-2.14-23.27-2.71-27.24-3.26-3.65-.51-8.11-2.16-12.21-2.79-4.11-.64-16.22-.64-18.87-3.13l-24.49-49.5c-3.26-1.96-38.48,3.94-45.53,4.35-.75.04-1.33-.84-1.48-.84Z"/>
  <path class="st3" d="M723.23,159.66c-15.77-5.65-31.39-11.98-46.68-18.82-9.56-4.28-22.36-9.74-31.22-14.81-1.75-1-2.72.07-2.11-3.36l36.76-25.82c3.09-.76,20.82,7.67,24.92,9.64,3.63,1.75,15.19,6.68,16.43,9.57,1.26,7.68,2.59,16.33,2.94,24.06.21,4.72.7,15.95-1.04,19.54Z"/>
  <path class="st8" d="M643.23,122.66c-.62,3.44.36,2.36,2.11,3.36,8.86,5.07,21.65,10.53,31.22,14.81,15.28,6.84,30.91,13.18,46.68,18.82-.48.99-1.17,1.74-1.94,2.52-3.13,3.14-32.17,24.27-34.62,24.5l-39.82-15.91c-2.94-15.26-2.76-31.16-4.64-46.62-.09-.84.66-1.08,1.02-1.48Z"/>
  <path class="st8" d="M610.23,216.66c-5.14-4.86-3.92-20.59-4.85-27.86,12.55-3.23,24.37-8.22,36.35-13.07,13.53,6.32,27.12,12.65,41.47,16.98-1.64,9.84-1.15,20.22-4.21,29.74-.48.46-1.44.06-1.76.21.51-2.42-1.12-2.15-2.7-2.75-9.23-3.48-20.21-3.93-29.81-6.23l-34.48,2.98Z"/>
  <path class="st8" d="M548.23,116.66c.07,1.66,0,3.34,0,5l-51.99,11.01c-.25,1.72,2.36,1.06,3.47.97,5.69-.42,12.19-2.3,18.04-2.97,9.01-1.04,18.41-2.01,27.49-2.01l-37.57,21.95-63.43-7.95,37-21c7.45-3.82,11.9-3.68,20-4,15.65-.61,31.4.37,47-1Z"/>
  <path class="st3" d="M728.23,113.66c2.82-8.19,14.9-18.36,17.01-28,4.86,1.63,16.05,9.12,17.55,13.94.61,1.95,1.25,8.15,1.43,10.57.66,9.08.86,25.9-.99,34.49-6.23,1.52-5.8-12.79-9.47-11.99-1.95.43-17.12,21.2-21.52,22.99-.05-12.3-.16-25.38-2-37.51-.27-1.78.48-3.77-2.01-4.49Z"/>
  <path class="st3" d="M708.14,38.57l-36.42,5.17c-13.68-3.29-27.25-7.7-41.49-8.07l.06-15.96c21.89-4.35,42.49-4.79,63.73,2.66,8.91,3.13,13.85,5.45,14.13,16.19Z"/>
  <path class="st2" d="M282.23,208.66c2.69.61,5.58.91,6.75,3.75,1.25,3.01,3.93,20.74,4.24,24.79.25,3.28-.17,2.5-2.99,2.46-1.06-3.11-.14-5.95-4-4.99,2.1,2.62,1.73,7.31,3.94,9.55,2.37,2.41,5.08.29,6.06,2.43-3.31-.37-17.03,4.54-18.9,2.91-.46-.4-2.32-10.18-3.17-11.83l-54.34,11.82c-2.06,1.38,1.14,7.05.41,8.08s-18.11,3.38-20.98,4.04c.7-6.03-7.32-5.37-8-10,3.18-.75,20.17-3.83,21.06-4.44,2.72-1.86-.71-8.6-.04-9.53.23-.32,4.67-.86,5.94-1.58,4.51-2.54.26-9.6,1.04-10.45.67-.72,16.51-3.61,19-5,.79,2.35,2.93,5.11,3.01,8,5.87-1.91,11.93-2.91,17.99-4l2.03,11.98,13.97-1.98c.07.35-.11.77,0,1,1.25,2.58,3.09.2,4,0,2.61-.57,6.53-.25,7.06-3.52.19-1.16-3.46-16.31-4.06-19.48-.22-1.2.21-2.78,0-4Z"/>
  <path class="st3" d="M244.23,197.66c.47,1.43.1,4.19,1,6,.43.86,0,.97,1.28.85,3.02-.29,10.55-2.71,13.72-3.85l4.01,16.01,16.99-4.01h1c.59,3.17,4.24,18.33,4.06,19.48-.52,3.27-4.45,2.95-7.06,3.52h-4c-.11-.23.07-.65,0-1-.83-3.88-1.36-8.03-2.05-11.95-4.78-.57-9.31,1.11-13.95,1.95-6.06,1.1-12.12,2.09-17.99,4-.08-2.89-2.22-5.65-3.01-8-.29-.85-.88-1.6-1-2-.99-3.26-.9-8.44-2.04-11.96-.81-.69-19.03,5.65-19.96,6.96-.09.13-1,2.84-1,3-3.17,2.39-7.19,1.58-10,2-.03-.66.05-1.34,0-2,2.76-.43,5.87-1.15,8.52-1.99,1.12-.35,1.79.73,1.48-1.5-.96-6.95-7.06-7.89-11-2.51-.72-3.15-2.06-6.36-2.77-9.55.18-1.01,1.39-1.2,2.18-1.54,10.28-4.42,26.18-5.68,37.1-9.95,2.11.16,3.71,5.69,4.49,8.04Z"/>
  <path class="st0" d="M266.23,152.66c25.3-11.97,50.06-25.54,75.99-35.99-.58,2.07-1.73-.12-1.99,2.99-.45,5.32-1.13,8.1-2,13l-42,19.02c-.88,2.93,1.61,1.62,2,1.98,2.61,2.45,3.33,2.96,6,5,.5.38.92,1.26,2,2,.48.33.44,1.87,2.48,2.02s4.32-1.44,6.52-1.02c.12.94-.05,2.02,0,3,.03.66-.05,1.34,0,2,1.64.76,3.79-1,4.5-1h15.5c-.61,4.45-7.34,5.04-10.8,5.7-10.82,2.08-27.73,3.93-38.2,3.3v-1c5.21.16,10.17-1.92,14.99-3.49-5.17-3.03-12.92-13.16-18.04-14.96s-12.02-.5-16.96-2.54Z"/>
  <path class="st1" d="M715.23,41.66c.06.34.94,1.06,1,2,.23,3.5-3.57,26.03-5.1,28.4l-27.9,15.59-6.64-37.49c-.01-.7.6-2.09,1.11-2.51,3.43-2.92,31.48-5.59,37.53-5.99Z"/>
  <path class="st0" d="M214.23,216.66c.1,3.46,6.45,14.94,3.02,17.52-7.56.24-57.25,14.96-59.85,13.33-.5-.31-.52-2.4-1.58-2.6-3.72-.68-25.42,7.9-27.59,5.75.3-1.54-.52-6.19.1-6.91,1.38-1.61,36.34-7.78,41.23-10.27,3.69-1.7-1.76-5.51,2.38-7.62,3.38-1.72,23.19-6.06,28.09-6.94,1.51-.27,2.93-.07,4.2-.26,2.81-.42,6.83.39,10-2Z"/>
  <path class="st3" d="M609.23,25.67c-8.84,6.39-18.96,10.9-26.74,18.75-19.19,2.53-38.42,5.05-57.45,8.55-21.41,3.94-42.4,9.78-63.81,13.67l22.48-9.01c40.86-13.78,82.62-26.27,125.52-31.97Z"/>
  <path class="st3" d="M588.23,105.66c-7.27,1.48-23.99-3.43-30-.5-3.76,1.83-.11,16.91-8,18.5-.1-9.27,1.09-18.12,3.5-27,1.38-5.09,7.06-21.57,11.21-23.79,2.7-1.44,18.08-4.81,19.85-2.27,1.15,1.64.17,8.79.45,11.55.78,7.83,2.47,15.65,2.99,23.51Z"/>
  <path class="st8" d="M575.23,156.66l4.12,9.36c3.21,4.86,15.64,17.59,15.92,22.12.13,2.11-.08,1.32-1.51,1.53-3.38.51-10.02-1.13-12.56,1.46-2.18,2.23.44,7.39-2.97,9.53-9.34-10.15-17.42-24.54-22.02-37.48-1.92-5.42-5.66-13.36-2.49-18.51,4.25,4.41,13.3,4.34,17.49,6.51,1.55.8,2.82,3.97,4.02,5.48Z"/>
  <path class="st8" d="M588.23,105.66c0,.15,1.05.51.62,1.96-1.15,3.83-8.35,13.93-10.79,18.37-1.38,2.52-7.2,16.03-7.97,16.52-1.89,1.2-15.65-3-17.42-4.78-2.52-2.54-2.39-10.56-2.43-14.07,7.88-1.59,4.23-16.67,8-18.5,6.02-2.93,22.74,1.98,30,.5Z"/>
  <path class="st4" d="M437.94,225.79c5.17-1.37,17.06,12.12,18.8,16.86.66,1.79,2.62,14.16,2.35,15.32-.57,2.41-9.57,6.13-12.41,4.79-8.97-4.23-20.72-21.39-15.95-31.11.2-.42,6.77-5.74,7.21-5.86Z"/>
  <path class="st4" d="M610.23,216.66l34.48-2.98c9.6,2.3,20.58,2.75,29.81,6.23,1.58.6,3.21.33,2.7,2.75-4.94,2.27-27.81,9.21-32.47,9.05-3.67-.13-19-6.9-23.2-8.87-3.24-1.52-8.89-3.87-11.33-6.17Z"/>
  <path class="st8" d="M728.23,113.66c2.49.72,1.74,2.71,2.01,4.49,1.84,12.13,1.95,25.21,2,37.51,4.4-1.78,19.56-22.56,21.52-22.99,3.67-.81,3.25,13.5,9.47,11.99-1.83,8.46-7.93,17.08-11,25,2.07-.52,1.23-3.07,2.99-3-.15,6.09-5.64,11.95-8.99,17l-1-1c2.07-3.53,5.64-9.5,7-13-3.22.81-20.21-9.09-21.81-11.7-.39-.64-.06-1.63-.19-2.3v-1c-.21-4.41-1-10.86-1-14.5v-16c0-3.03-2.33-6.64-1-10.5Z"/>
  <path class="st4" d="M547.23,128.66c-.05,1.26,2.15,4.44.79,6.8-13.59,6.97-25.81,16.96-39.79,23.2.08-3.5-2.12-2.47-4-3-17.37-4.92-40.92-3.04-59-7,.78-2.36-3.38-4.9-1-6l63.43,7.95,37.57-21.95c.67,0,1.33,0,2,0Z"/>
  <path class="st3" d="M266.23,188.66c-.15-.31-2.38-4-2.62-4.07-2.69-.79-9.2,1.79-10.3,1-.82-.59-.44-4.67-1.68-5.01-4-1.08-19.17,6.17-20.39,5.08.45-3.36-4.05-8.73-.33-10.83,1.21-.68,22.65-7.19,23.9-7.16,3.57.08,2.71,7.35,3.44,7.99.31.27,3.26-.73,3.99-1-.45,3.1,1.13,1.93,3.06,1.57,5.62-1.06,10.99-4.24,16.94-3.57.14.48,1.03,1.2,1,2-1.12.18-2.62.22-2.92,1.59-.09.42,1.66,7.62,1.92,8.41l-16,4Z"/>
  <path class="st3" d="M715.23,41.66c-.35-1.88-.1-3.46-.92-5.57-.75-1.93-5.36-5.51-1.6-5.42,19.32,14.08,35.83,29.36,45.04,51.96,1.12,2.75,4.39,7.4.5,9.02-2.07-6.63-10.34-9.64-14.55-13.96-4.66-4.78-9.73-14.62-14.49-20.51-3.87-4.78-8.19-9.62-12.97-13.53-.06-.94-.94-1.66-1-2Z"/>
  <path class="st4" d="M324.12,255.55c-.45.64-7.83,2.19-9.16,1.95-2.57-.47-8.08-5.21-9.57-7.51-4.72-7.24-7.52-29.28,5.58-23.58,3.63,1.58,11.09,12.34,12.02,15.98.31,1.23,1.51,12.61,1.13,13.15Z"/>
  <path class="st8" d="M282.23,184.66c.58,1.73,3.83,5.26,4,8-.08.04.2,1.4-.26,1.69-1.47.92-3.73.42-4.74,2.31-.66.03-1.34-.04-2,0s-1.34-.05-2,0l4,16-16.99,4.01-4.01-16.01c1.17-.42,7.64-2.77,7.87-3.12,1.91-3.05-1.67-5.38-1.87-5.88-.27-.71.29-2.42,0-3l16-4Z"/>
  <path class="st4" d="M502.23,163.66c.12.04.41,1.19,1.09,1.42,11.23,3.79,14.65,10.83,14.91,22.58-1.32.3-1.65-.42-3,1-2.03,2.13.52,3.65-.13,6.28-1.01,4.04-15.12,11.72-19.13,11.52-1.49-.08-3.29-.85-2.73-2.8,1.01-.36,2.47-1.4,4-2,.49-.19.88-.99,1-1,.33-.04.67.03,1,0,.13-.01.89,1.14,2.36,1.01,3.48-.29,5.28-2.52,4.64-6.01,1.11-.72,5.96-2.91,6.07-3.65l-6.28-23.64c-.43-1.05-.87-1.84-2.19-1.63-2.39.38-15,10.01-18.5,11.59l6.9,25.33c-.63.1-1.35-.06-2,0-.08-.25-1.55-1.58-2-2l-6-25c.14-.25-.2-1.14.29-1.69,1.48-1.69,18.32-11.77,19.71-11.31Z"/>
  <path class="st4" d="M575.23,156.66c3.91,4.92,20.69,24.62,22.25,28.25,1.12,2.61,2.38,18.13,2.74,22.27.13,1.49.02,3,0,4.48-8.88-1.08-15.99-4.47-22-11,3.41-2.14.79-7.3,2.97-9.53,2.54-2.6,9.18-.96,12.56-1.46,1.43-.21,1.64.58,1.51-1.53-.29-4.53-12.71-17.26-15.92-22.12l-4.12-9.36Z"/>
  <path class="st3" d="M546.23,237.66c7.14-.63,14.22-1.18,21.33-2.17,10.32-1.43,40.3-9.06,47.93-7.6,4.62.89,9.89,4.49,14.74,5.26-11.3,2.08-23.04,3.66-34.52,4.49-16.43,1.19-33.11,1.27-49.49,2.01v-2Z"/>
  <path class="st4" d="M191.23,251.66c.68,4.63,8.7,3.97,8,10-1.95.44-12.35,3.02-13.04,3.5-1.87,1.28.94,3.71-.93,5.01-1.19.82-9.1,2.14-9.95,1.4-.61-.53-3.63-15.3-3.07-15.88,6.38-.95,12.71-2.55,18.98-4.02Z"/>
  <path class="st1" d="M266.23,152.66c4.94,2.04,11.91.76,16.96,2.54s12.86,11.93,18.04,14.96c-4.83,1.58-9.78,3.66-14.99,3.49-1.32-1.61-5.36-10.3-6.2-10.79-2.34-1.36-8.27,1.28-11.29-1.22-.65-.54-4.16-6.62-4.42-7.6-.62-2.35,1.09-1.01,1.91-1.39Z"/>
  <path class="st4" d="M712.23,216.67c.21.23.33,2.32-.62,3.07-1.98,1.56-10.23,4.56-13.13,5.67-15.86,6.11-33.18,9.78-50.25,9.24l63.99-17.99Z"/>
  <path class="st7" d="M562.23,183.66c.89,1.63,3.05,5.48,4,7h-23l-28-2c1.35-1.42,1.68-.7,3-1,8.74-1.98,20.72-1.19,30-2,4.65-.41,9.43-1.03,14-2Z"/>
  <polygon class="st2" points="560.23 72.67 557.56 79.7 516.24 82.16 560.23 72.67"/>
  <path class="st3" d="M548.23,121.66c0,2.92-.93,5.19-1,7-.67,0-1.33,0-2,0-9.08,0-18.48.97-27.49,2.01-5.85.67-12.35,2.55-18.04,2.97-1.11.08-3.72.75-3.47-.97l51.99-11.01Z"/>
  <path class="st2" d="M266.23,191.66c.19.5,3.78,2.83,1.87,5.88-.22.36-6.69,2.7-7.87,3.12-3.17,1.14-10.7,3.55-13.72,3.85-1.28.12-.86.02-1.28-.85,3.82.08,3.37-5.1,4-8,5.33-1.65,11.47-3.11,17-4Z"/>
  <path class="st2" d="M301.23,252.65c-.7,1.09-24.12,5.31-25.35,4.93-2.02-.62-2.28-4.8-1.08-4.94,4.79,1.85,23.62-6.3,25.99-3.03.51.7.74,2.58.44,3.04Z"/>
  <path class="st8" d="M572.23,198.66c1.3,1.59,4.69,3.42,6,5.5.24.54-2.26,1.03-3,1.5l-26.51-2.99c-2.65.21-5.99-.42-8.49-.01v-1c10.71.11,21.58-.25,32-3Z"/>
  <path class="st2" d="M215.23,213.66c.93-1.32,19.15-7.65,19.96-6.96,1.14,3.52,1.05,8.7,2.04,11.96-7.83,4.67-5.01-6.84-8.63-7.93-2.45-.74-9.75,4.25-13.37,2.93Z"/>
  <path class="st7" d="M203.23,210.66c3.94-5.37,10.04-4.43,11,2.51.31,2.23-.36,1.14-1.48,1.5-2.65.84-5.76,1.56-8.52,1.99-.14-1.87-.58-4.16-1-6Z"/>
  <path class="st8" d="M282.23,172.66c-5.95-.68-11.32,2.5-16.94,3.57-1.93.37-3.51,1.53-3.06-1.57,3.04-1.11,15.57-6.89,17.52-6.68,2.34.25,2.08,3.34,2.48,4.68Z"/>
  <path class="st4" d="M562.23,183.66c-4.57.97-9.35,1.59-14,2,1.5-1.15,9.94-7.79,10.59-7.94,2.99-.69,2.92,5.03,3.41,5.94Z"/>
  <path class="st1" d="M508.23,158.66c-1.16.52-1.48,1.98-4,2-5.79.05-4.7-3.07,0-5,1.88.53,4.08-.5,4,3Z"/>
  <path class="st4" d="M245.23,203.66c-.9-1.81-.53-4.57-1-6,1.67-.6,3.31-1.48,5-2-.63,2.9-.18,8.08-4,8Z"/>
  <path class="st4" d="M546.23,237.66v2c-1.53.07-12.02.32-12.01-.5,3.86-1.41,8.02-1.15,12.01-1.5Z"/>
  <path class="st4" d="M746.23,183.66c-2.03,3.06-3.64,6.36-6.05,9.2-1.02,1.2-3.27,3.86-4.94,3.79l2.03-1.69c1.83-4.24,5.74-8.5,7.97-12.3l1,1Z"/>
  <path class="st4" d="M730.23,155.66c-.19-.94,0-.85,0-1v1Z"/>
  <path class="st6" d="M480.98,418.88c6.76-1.27,22.26,8.3,29.79,9.74,1.54,3.47-.47,7.01-.58,10.5-.18,5.71,1.17,24.92-.48,28.52-.29.62-5.05,6.18-5.93,7.07-2.73,2.72-16.85,12.88-20.05,12.88-4.97-.01-25.09-15.55-26.29-20.63-1.08-4.6-2.25-35.79-.73-38.31,7.03-2.03,17.66-8.52,24.27-9.76ZM506.13,430.76c-6.49-.04-17.7-8.1-23.24-7.81-4.59.24-16.89,7.21-22.17,8.7-.9,1.49-.87,30.36-.04,33.07,1.46,4.73,19.12,18.65,23.98,17.95,3.59-.52,19.42-12.82,20.82-16.26.92-2.27,1.82-34.29.65-35.65Z"/>
  <path class="st0" d="M107.19,251.63c-.62.64-15.06,2.45-17.39,3.95-1.93-.49-2.5-9.65-3.58-11.9,3.81.52,15.82-4.71,18.39-3.94,1.95.59,3.22,11.22,2.58,11.89Z"/>
  <path class="st4" d="M93.17,222.72c.19.17.73,3.99,1.07,4.93-1.89-.11-10.43,3.42-11,3.01-.25-.18-1.44-5.45-.99-5.97.36-.42,10.5-2.34,10.91-1.98Z"/>
  <path class="st0" d="M144.23,257.66l1.01,5-7.01,1.01c-.96-5.73.91-5.47,5.99-6.01Z"/>
  <path class="st0" d="M202.24,376.68c-1.64,1.96,2.84,2.59,3.96,3.5,7.2,5.79,2.99,26.81-3.33,33.13-9.53,9.53-34.7,7.94-47.65,10.36l8.15-77.86c10.31.25,38.01-8.83,45.4-1.18,5.2,5.39,3.11,22.12-1.11,27.97-1.84,2.56-5.06,3.66-5.42,4.09ZM192.1,359.79c-12.57-1.93-12.9,1.47-12.86,12.87,9.29-.84,15.62-1.7,12.86-12.87ZM176.24,403.66c6.29-1.6,13.04.86,14.01-7.48,1.28-11.05-4.99-6.82-13.02-7.52l-.99,15Z"/>
  <path class="st0" d="M311.89,335c7.78,7.75,4.82,22.68,4.35,32.17-1.09,21.9.11,41.35-27.47,43.53-18.25,1.44-27.48-.17-28.57-20.5-.6-11.15,1.53-38.87,6.87-48.2,6.9-12.03,35.74-16.04,44.82-7ZM287.97,348.91c-2.45.45-4.33,1.19-5.52,3.47s-2.01,10.82-2.2,13.8c-.33,5.02-.82,17.55.02,21.96,1.12,5.91,13.76,5,15.75-2.2,1.39-5.04,2.09-18.01,2.26-23.73.27-8.69.62-15.3-10.3-13.3Z"/>
  <path class="st0" d="M425.23,324.66c1.51,1.47-15.72,33.63-16.93,38.5l17.93,39.5h-21.5l-14.5-31v32c-1.28-.55-2.96,1-3.5,1h-15.5l2.05-77.95c3.6,1.18,16.84-2.42,18.53-.11-.45,8.48-.9,17.04-.58,25.57.04,1.21-.75,3.72.99,3.48l13.51-30.99h19.5Z"/>
  <path class="st0" d="M473.23,323.66v18h-24v12h22v16.5c0,.11-1.39,1.5-1.5,1.5h-20.5v12h25v17.5c0,1.1-2.44,1.43-3.45,1.55-7.86.92-18.78-.17-27.09-.1-4.64.04-9.29,1.32-14.46.05v-78l44-1Z"/>
  <path class="st0" d="M367.23,345.66h-20.5c-7.1,0-5.32,17.16-5.51,21.49-.2,4.66-3.18,16.17,1.59,19.43,5.04,3.45,17.34-1.64,23.42-.92l-1.43,18.07c-14.06,3.28-36.11,8.45-42.04-9.1-3.27-9.68-2.14-44.34,1.98-53.96,2.52-5.89,7.52-10.44,13.67-12.33,1.01-.31,6.83-1.68,7.32-1.68h20c.11,0,1.5,1.39,1.5,1.5v17.5Z"/>
  <polygon class="st0" points="526.23 323.66 526.23 341.66 511.23 341.66 511.23 401.66 491.23 401.66 491.23 341.66 476.23 341.66 476.23 323.66 526.23 323.66"/>
  <path class="st0" d="M238.22,336.67l-3.99,59,23-2.01c.66.65-.7,16.97-1.14,18.37-.37,1.18-1.2,1.58-2.36,1.64l-40.5,3,6-78.01,19-1.99Z"/>
  <path class="st2" d="M668.23,368.66c-1.32,9.47-5.51,11.99,8,10.99-1.19-3.2-1.28-6.88-2-9.99l17,3c3.6,12.31,8.35,24.39,10.99,36.99-4.89-2.16-13.31.23-17.36-1.13-2.94-.99-2.46-9.9-3.78-10.73-1.03-.64-17.17-1.7-17.81-1.08-.76.73,0,8.91-2.68,9.84-3.1,1.08-13.1-2.31-17.37-.89,2.46-13.02,5.26-26.03,8-39l17,2Z"/>
  <path class="st2" d="M717.23,374.66c1.05,12.05-1,19.98,15,19,2.69-14.75-4.98-9.05-7-11.01-.32-.31.17-5.52,0-6.99l23,2c.38,4.54,3.02,31.04,1.87,32.86-13.04,3.66-35.4,3.94-44.28-7.95-6.61-8.85-5.86-18.74-6.59-28.91l18,1Z"/>
  <path class="st2" d="M597.23,361.66c4.47.16,9.01-.24,13.49.01,7.35.4,15.8,2.66,23.11,2.05,2.01-.17,2.45-.13,3.4-2.06.29,3.95-.21,8.04,0,12h-21v12.01s25,.99,25,.99l1,19.01-43.07-2.44c-1.83-1.27-.76-22.21-.9-26.1-.17-4.94-.85-10.2-1.04-15.46Z"/>
  <path class="st2" d="M771.23,380.66c1.81,6.18-.81,18.77,8.52,19.05,10.17.3,6.04-12.18,5.48-19.05l18,1c1.58,19.31,5.85,37.78-20.54,36.03-24.65-1.64-27.15-17.47-29.46-38.03l18,1Z"/>
  <path class="st2" d="M847.23,382.66c.52,3.31.52,7.55,1,11l-20-2c-.14,2.14.1,11.17,1.67,12.05,3.34,1.88,21.22,1.46,22.91,3.88l1.43,17.08c-5.49-.73-39.95-3.57-41.54-5.97-1.38-12.3-2.09-24.75-3.46-37.04l38,1Z"/>
  <path class="st8" d="M597.23,361.66c-.44-11.96-.59-24.21-2-35.99l43,1.99v17h-19.5c-.51,0-2.1-1.59-3.49-1v12s20.36,1.13,20.36,1.13c2.21.72,1.51,3.16,1.63,4.87-.95,1.93-1.39,1.9-3.4,2.06-7.31.6-15.76-1.65-23.11-2.05-4.48-.25-9.02.15-13.49-.01Z"/>
  <path class="st8" d="M809.23,381.66c-1.43-12.8-3.11-25.73-5.02-38.49-.12-2.06,37.82,4.27,40.79,4.7,1.47,1.06,1.98,14.87,2.22,17.79-2.22.2-22.95-3.7-23.01-2.49,1.39,2.33.44,9.17,1.15,10.35.99,1.63,18.85,1.7,20.67,3.32.58.52.99,4.56,1.19,5.82l-38-1Z"/>
  <path class="st2" d="M570.23,360.66c.19,6.21-1,16.02,0,21.5.15.83.8,2.5,1.5,2.5h22.5v19l-42.01-.99c-1.12-14-.81-27.96-.99-42.01h19Z"/>
  <path class="st8" d="M699.23,373.66c-.58-8.15-1.95-17.13-1-25.5,2.56-22.73,28.77-14.61,43.95-12.45l1.05,17.95c-5.95-.15-20.39-5.38-24.96-1.46-3.79,3.25-1.49,17.28-1.03,22.47l-18-1Z"/>
  <path class="st8" d="M651.23,366.66c2.67-12.61,5.18-25.32,8.14-37.86l19.25.8c3.48,10.61,6.92,21.34,10.11,32.07,1.06,3.56,1.56,7.77,2.5,11l-17-3c-.84-3.66-3.41-7.8-3.01-12-2.63-.21-1.66-.11-1.96,1.52-.57,3.07-.61,6.4-1.03,9.48l-17-2Z"/>
  <path class="st8" d="M771.23,380.66l-18-1c-1.59-14.18-1.97-28.75-3-43,.58-.58,14.91.69,16.37,1.14.8.25,1.3.67,1.5,1.5l3.14,41.36Z"/>
  <path class="st8" d="M785.23,380.66c-1.11-13.67-3-27.35-4-41l17.95,2.05c.44,13.39,2.96,26.65,4.05,39.96l-18-1Z"/>
  <path class="st8" d="M551.23,360.66c-.1-7.82.28-15.72.04-23.54-.1-3.18-2.39-9.93-.6-12.52,1.42-2.06,15.05,1.29,18.57.05-.32,12.03.63,24.01.99,36.01h-19Z"/>
  <path class="st8" d="M725.23,375.66c-.29-2.4-1.91-5.74-1-9l24.01,2c.17,2.97-.25,6.05,0,9.01l-23-2Z"/>
  <path class="st5" d="M239.23,250.66c8.11-1.95,17.71-2.76,25.96-4.98.1,3.34,4.68,12.91,3.96,15.35-.4,1.36-1.97,1.52-3.1,1.95-2.73,1.02-22.95,5.6-25.45,5.65-1.93.04-2.98-.88-4.36-1.97.25-7.17-6.2-13.78,3-16ZM263.22,248.66c-3.32,1.47-25.04,4.87-25.91,6.09-1.08,1.52,2.26,8.56,1.93,10.92l26.04-5.49c1.69-.96-2.06-9.36-2.05-11.52Z"/>
  <path class="st5" d="M221.12,164.78c.34,3.84,5.69,13.95,3.67,16.93-.82,1.2-15.68,5.18-16.59,4.55-1.63-3.07-5.46-14.95-3.83-17.46.47-.73,15.63-4.8,16.75-4.02ZM219.19,167.69c-1.77.2-11.49,2.59-11.85,3.09-1.49,2.12,2.55,9.01,1.91,11.87.91.89,10.85-1.63,12.56-2.95,1.31-1.87-2.59-9.3-2.62-12.02Z"/>
  <path class="st2" d="M184.19,189.7l3.04,15.96c-3.61-.29-9.51,3.13-12.55,2.92-1.44-.1-2.37-1.71-3.77-1.71-6.38.03-24.3,8.13-32.43,9.55-1.4.24-2.81.43-4.22.21.38-1.5-1.55-6.4-1.03-6.96.16-.17,3.28-.3,4.57-.93,2.09-1.02,3.27-2.51,5.62-3.39,4.73-1.77,23.6-5.43,25.84-7.15,1.81-1.39.43-4.63,1.08-5.43.44-.55,11.9-2.91,13.86-3.07Z"/>
  <path class="st5" d="M406.23,163.66c-8.32-1.96-49.59,3.66-54.05.57-2.06-1.43.03-7.31.1-10.01.23-8.96-1.43-17.58-.99-26.5,12.27-1.07,24.74-3.87,36.96-3.56l17.98,39.5Z"/>
  <path class="st5" d="M543.23,190.66c-2.14,2.54-5.66,2.61-8.32,4.18s-5.25,4.57-7.4,5.6c-3.63,1.74-7.25.72-11.34,2.66-8.08,3.85-16.15,11.33-24.94,15.56,3.97-1.43,0-7.66-1-11-.31-1.03.31-2.97,0-4,.65-.06,1.37.1,2,0,.35-.05.74.09,1,0-.55,1.95,1.24,2.72,2.73,2.8,4.01.2,18.13-7.48,19.13-11.52.65-2.63-1.9-4.15.13-6.28l28,2Z"/>
  <path class="st2" d="M459.23,189.66c.33,2.11-4.93,4.57-6.32,5.18-1.69.75-3.15,1.94-5.16,1.84l-43.52-2.02c.13-.39-.34-1.29.22-1.75.48-.4,10.72-5.1,11.33-5.2,8.39-1.34,34.93.01,43.45,1.95Z"/>
  <path class="st2" d="M325.23,190.66c-2.59,2.25-7.2,5.42-10.56,5.94-9.51,1.48-23.22-.47-33.44.06,1-1.88,3.27-1.38,4.74-2.31.46-.29.18-1.65.26-1.69,6.31-3.47,20.81-1.87,28.54-1.96,4.69-.05,4.86-1.57,10.46-.04Z"/>
  <path class="st4" d="M336.23,148.66c-.3,2.36-1.68,12.69-2.95,13.55l-18.05,2.45c-.05-.98.12-2.06,0-3-.17-1.3-1.11-4.46-1-5l22-8Z"/>
  <path class="st5" d="M338.23,132.66c-.49,2.77.7,6.62-2,9,.08-1.62,2.36-6.83-.48-5.98l-37.52,17.98c-.39-.36-2.87.95-2-1.98l42-19.02Z"/>
  <path class="st5" d="M336.23,142.66c-.03.66.05,1.34,0,2-2.9,1.73-21.64,10.15-22,12l-8,4c-1.08-.74-1.5-1.62-2-2l32-16Z"/>
  <path class="st2" d="M336.23,148.66l-22,8c.36-1.85,19.1-10.27,22-12-.1,1.31.16,2.72,0,4Z"/>
  <path class="st2" d="M540.23,201.66v1c-7.95,1.29-35.65,25-41.5,25h-16.5c.13-.82-.23-2.69,0-2.98.36-.45,8.81-1.36,11.24-2.28,8.27-3.14,17-12.84,25.05-15.95s14.11-4.87,21.71-4.79Z"/>
  <path class="st5" d="M279.23,196.66c.06,4.04,2.35,8.26,3,12,.21,1.22-.22,2.8,0,4h-1l-4-16c.66-.05,1.33.03,2,0Z"/>
  <path class="st2" d="M479.73,225.66c.65.33.65.67,0,1v-1Z"/>
  <path class="st5" d="M445.23,148.66c-5.11.65-18.66,12.7-22.01,10.56l-19.57-41.58,58.09-29.62c9.15,6.45,19.41,11.8,27.49,19.64-3.81-2.47-8.31-4.48-12.33-7.17-1.89-1.26-12.19-9.91-13.16-9.94-6.86-.21-26.29,16.22-34.51,18.12l52,12.99-37,21c-2.38,1.1,1.78,3.64,1,6Z"/>
  <path class="st1" d="M481.23,121.66l-52-12.99c8.22-1.9,27.65-18.33,34.51-18.12.97.03,11.27,8.68,13.16,9.94,4.02,2.69,8.52,4.7,12.33,7.17,3.31,2.14,6.35,4.68,9.53,7.02,1.19.88,2.99.71,2.47,2.98-8.1.32-12.55.18-20,4Z"/>
  <path class="st7" d="M488.23,201.66c-.23-.21-1.41-.03-1.97-.54-2.18-2.02-6.56-18.48-5.86-21.79.32-1.49,1.38-1.89,1.82-2.67l6,25Z"/>
  <path class="st8" d="M259.23,224.66c4.64-.84,9.17-2.52,13.95-1.95.69,3.92,1.22,8.07,2.05,11.95l-13.97,1.98-2.03-11.98Z"/>
  <path class="st8" d="M279.23,235.66c-.91.2-2.75,2.58-4,0h4Z"/>
  <path class="st1" d="M314.23,156.66c-.11.54.83,3.7,1,5-2.19-.42-4.54,1.15-6.52,1.02s-2-1.68-2.48-2.02l8-4Z"/>
  <path class="st3" d="M492.23,203.66l-6.9-25.33c3.51-1.59,16.11-11.21,18.5-11.59,1.31-.21,1.75.58,2.19,1.63l6.28,23.64c-.11.74-4.96,2.93-6.07,3.65-2.37,1.53-5.4,2.71-7,5-.33.03-.67-.04-1,0l-1,1c-1.53.6-2.99,1.64-4,2-.26.09-.65-.05-1,0Z"/>
  <path class="st8" d="M499.23,200.66c1.6-2.29,4.63-3.47,7-5,.64,3.49-1.16,5.72-4.64,6.01-1.47.12-2.23-1.02-2.36-1.01Z"/>
  <path class="st8" d="M497.23,201.66l1-1c-.12.01-.51.81-1,1Z"/>
  <path class="st5" d="M506.13,430.76c1.17,1.35.27,33.37-.65,35.65-1.4,3.45-17.23,15.75-20.82,16.26-4.86.7-22.52-13.22-23.98-17.95-.84-2.72-.86-31.58.04-33.07,5.29-1.48,17.59-8.46,22.17-8.7,5.54-.28,16.75,7.78,23.24,7.81ZM503.23,433.66l-19.99-6-.02,11.43c.14.94,10.15.79,10.96,1.62.57.58-.3,9.07.05,10.96h9.01v-18.01ZM473.23,440.66c.08,3.65-.05,7.34,0,11-2.99.06-6.01-.05-9.01,0-3.21,14.52,7.59,20.84,19.01,26.01v-14c-1.69-.28-9.62.39-10.01,0-.42-.42.03-10.13,0-12.01,3.31-.07,6.69-.06,10,0,.03,3.66-.02,7.35,0,11.01h10.01s0-11.01,0-11.01c-3.32-.04-6.68.06-10.01,0-.03-3.66.02-7.35,0-11.01-3.32-.07-6.69.11-10.01,0-.06-2.99.05-6.01,0-9-3.95-.15-10.06.56-10.09,5.5-.03,5.21,6.11,3.37,10.09,3.5ZM501.23,463.67h-8s.01,7.99.01,7.99c.95,1.09,9.11-5.12,7.99-7.99Z"/>
  <path class="st5" d="M176.24,403.66l.99-15c8.03.7,14.31-3.52,13.02,7.52-.97,8.33-7.72,5.88-14.01,7.48Z"/>
  <path class="st5" d="M192.1,359.79c2.76,11.17-3.57,12.03-12.86,12.87-.04-11.41.29-14.8,12.86-12.87Z"/>
  <path class="st5" d="M287.97,348.91c10.93-2,10.57,4.61,10.3,13.3-.18,5.72-.87,18.69-2.26,23.73-1.99,7.2-14.63,8.11-15.75,2.2-.83-4.42-.35-16.94-.02-21.96.19-2.98,1.05-11.61,2.2-13.8s3.07-3.02,5.52-3.47Z"/>
  <path class="st5" d="M668.23,368.66c.43-3.08.47-6.41,1.03-9.48.3-1.63-.67-1.73,1.96-1.52-.4,4.21,2.16,8.35,3.01,12,.72,3.11.81,6.8,2,9.99-13.5,1-9.32-1.52-8-10.99Z"/>
  <path class="st3" d="M263.22,248.66c-.01,2.17,3.75,10.56,2.05,11.52l-26.04,5.49c.33-2.36-3.01-9.4-1.93-10.92.87-1.22,22.59-4.62,25.91-6.09Z"/>
  <path class="st0" d="M219.19,167.69c.03,2.71,3.93,10.14,2.62,12.02-1.72,1.32-11.66,3.84-12.56,2.95.65-2.86-3.39-9.75-1.91-11.87.35-.5,10.08-2.89,11.85-3.09Z"/>
  <path class="st8" d="M503.23,433.66v18h-9.01c-.34-1.88.52-10.37-.05-10.95-.81-.83-10.82-.67-10.96-1.62l.02-11.43,19.99,6Z"/>
  <path class="st8" d="M473.23,451.66c.02,1.87-.43,11.58,0,12.01.39.39,8.31-.29,10.01,0v14c-11.41-5.17-22.21-11.48-19.01-26.01,2.99-.04,6.01.07,9.01,0Z"/>
  <path class="st0" d="M473.23,440.66c-3.98-.13-10.13,1.7-10.09-3.5s6.14-5.65,10.09-5.5c.05,2.99-.06,6.01,0,9,3.32.11,6.68-.08,10.01,0,.02,3.66-.03,7.35,0,11.01-3.31-.06-6.69-.07-10,0-.05-3.66.08-7.35,0-11Z"/>
  <path class="st2" d="M483.23,451.66c3.32.06,6.68-.04,10.01,0v11.01s-10.01,0-10.01,0c-.02-3.66.03-7.35,0-11.01Z"/>
  <path class="st0" d="M501.23,463.67c1.12,2.87-7.04,9.08-7.99,7.99v-8s7.99.01,7.99.01Z"/>
</svg>